# xmcd
#
# Track frame offsets: 
#        150
#        6047
#        23584
#        43563
#        58197
#        63912
#        82136
#        98916
#        118513
#        127530
#        148822
#        173464
#        191071
#        209451
#        226834
#        246121
#        267626
#
# Disc length: 3761 seconds
#
# Revision: 0
# Processed by: cddbd v1.5.2PL0 Copyright (c) Steve Scherf et al.
# Submitted via: ExactAudioCopyFreeDBPlugin 1.0
#
DISCID=e40eaf11
DTITLE=112 - Part III
DYEAR=2001
DGENRE=R&B
TTITLE0=112 Intro
TTITLE1=Dance With Me
TTITLE2=It's Over Now
TTITLE3=Peaches and Cream
TTITLE4=I Surrender (Interlude)
TTITLE5=Missing You
TTITLE6=All I Want Is You
TTITLE7=Don't Hate Me
TTITLE8=Q, Mike, Slim, Daron (Interlude)
TTITLE9=Player
TTITLE10=Sweet Love
TTITLE11=Smile
TTITLE12=Caught Up
TTITLE13=Do What You Gota Do
TTITLE14=I Think
TTITLE15=Still In Love
TTITLE16=Peaches and Cream...FU again. (By Dave)
EXTD=
EXTT0=
EXTT1=
EXTT2=
EXTT3=
EXTT4=
EXTT5=
EXTT6=
EXTT7=
EXTT8=
EXTT9=
EXTT10=
EXTT11=
EXTT12=
EXTT13=
EXTT14=
EXTT15=
EXTT16=
PLAYORDER=
